<svg width="475" height="96" viewBox="0 0 475 96" fill="none" xmlns="http://www.w3.org/2000/svg">
<path d="M374.72 78.8701V32.02H366.2C365.376 32.0533 364.554 31.9198 363.783 31.6276C363.012 31.3353 362.308 30.8902 361.714 30.3191C361.119 29.748 360.646 29.0626 360.323 28.3041C359.999 27.5456 359.833 26.7295 359.833 25.905C359.833 25.0805 359.999 24.2645 360.323 23.506C360.646 22.7475 361.119 22.0621 361.714 21.491C362.308 20.9198 363.012 20.4748 363.783 20.1825C364.554 19.8902 365.376 19.7567 366.2 19.79H382.41C383.758 19.8005 385.047 20.3398 386.001 21.2918C386.955 22.2438 387.497 23.5324 387.51 24.88V78.88L374.72 78.8701Z" fill="black"/>
<path d="M399.88 78.71C398.301 78.6462 396.808 77.974 395.713 76.8342C394.619 75.6944 394.007 74.1753 394.007 72.595C394.007 71.0147 394.619 69.4957 395.713 68.3559C396.808 67.2161 398.301 66.5439 399.88 66.48H418.88C420.355 66.48 421.769 65.8943 422.812 64.8516C423.854 63.8089 424.44 62.3946 424.44 60.92C424.44 59.4454 423.854 58.0312 422.812 56.9885C421.769 55.9458 420.355 55.36 418.88 55.36H402.66C401.081 55.2962 399.588 54.624 398.493 53.4842C397.399 52.3444 396.787 50.8254 396.787 49.2451C396.787 47.6648 397.399 46.1457 398.493 45.0059C399.588 43.8661 401.081 43.1939 402.66 43.13H418.88C419.629 43.1618 420.377 43.0417 421.079 42.7769C421.781 42.512 422.422 42.108 422.963 41.5891C423.504 41.0701 423.935 40.4469 424.23 39.7571C424.524 39.0673 424.676 38.325 424.676 37.575C424.676 36.825 424.524 36.0828 424.23 35.3929C423.935 34.7031 423.504 34.08 422.963 33.561C422.422 33.0421 421.781 32.638 421.079 32.3732C420.377 32.1083 419.629 31.9882 418.88 32.02H399.88C398.301 31.9562 396.808 31.284 395.713 30.1442C394.619 29.0044 394.007 27.4853 394.007 25.905C394.007 24.3247 394.619 22.8057 395.713 21.6659C396.808 20.5261 398.301 19.8539 399.88 19.79H418.97C429.16 19.79 437.31 27.11 437.31 37.2C437.335 39.443 436.895 41.667 436.019 43.7321C435.143 45.7971 433.85 47.6587 432.22 49.2C433.851 50.7699 435.144 52.6566 436.019 54.7443C436.894 56.8319 437.334 59.0764 437.31 61.34C437.31 71.34 429.16 78.66 418.97 78.66L399.88 78.71Z" fill="black"/>
<path d="M27.28 74.7499H20.1899V52.7499C20.1607 49.5348 19.0195 46.429 16.96 43.96C19.0469 41.499 20.1917 38.3767 20.1899 35.15V13.09H27.28C28.0972 13.1231 28.9126 12.9909 29.6774 12.701C30.4421 12.4112 31.1405 11.9698 31.7305 11.4033C32.3204 10.8369 32.7897 10.157 33.1104 9.40466C33.431 8.65227 33.5963 7.84282 33.5963 7.02496C33.5963 6.2071 33.431 5.39765 33.1104 4.64526C32.7897 3.89287 32.3204 3.21306 31.7305 2.6466C31.1405 2.08014 30.4421 1.63877 29.6774 1.34893C28.9126 1.0591 28.0972 0.926766 27.28 0.959955H19.03C16.0718 0.965243 13.2363 2.14273 11.1445 4.23449C9.05277 6.32625 7.87528 9.1618 7.87 12.12V36.09C7.85736 36.566 7.66255 37.0191 7.32581 37.3558C6.98906 37.6926 6.53599 37.8873 6.05994 37.9C4.49401 37.9636 3.01345 38.6303 1.92798 39.7608C0.842507 40.8913 0.236328 42.3977 0.236328 43.965C0.236328 45.5322 0.842507 47.0387 1.92798 48.1691C3.01345 49.2996 4.49401 49.9664 6.05994 50.03C6.53678 50.0402 6.99124 50.2342 7.32849 50.5714C7.66575 50.9087 7.85979 51.3631 7.87 51.84V75.74C7.87264 78.6999 9.04894 81.538 11.141 83.6319C13.233 85.7258 16.0701 86.9047 19.03 86.91H27.28C28.8899 86.91 30.4338 86.2704 31.5721 85.1321C32.7105 83.9937 33.35 82.4498 33.35 80.84C33.35 79.2301 32.7105 77.6862 31.5721 76.5478C30.4338 75.4095 28.8899 74.77 27.28 74.77V74.7499Z" fill="white"/>
<path d="M54.0899 11.63C53.1899 10.63 53.7899 9.39004 55.5599 8.83004C57.3299 8.27004 59.36 8.63008 60.26 9.62008L66.75 17.14L72.8199 9.27004C73.6599 8.27004 75.8199 7.76004 77.4599 8.27004C79.0999 8.78004 79.9299 9.90005 79.0899 10.9701L70.0899 22.19C69.2092 22.977 68.0785 23.4268 66.8979 23.4597C65.7173 23.4927 64.5632 23.1067 63.64 22.3701L54.0899 11.63Z" fill="white"/>
<path d="M337.45 78.78C319.94 78.78 307.24 65.8999 307.24 49.3199C307.24 32.7399 319.94 19.85 337.45 19.85H348.38C349.204 19.8166 350.026 19.9501 350.797 20.2424C351.568 20.5347 352.272 20.9798 352.866 21.5509C353.461 22.122 353.934 22.8074 354.257 23.5659C354.581 24.3244 354.747 25.1404 354.747 25.965C354.747 26.7895 354.581 27.6055 354.257 28.364C353.934 29.1225 353.461 29.8079 352.866 30.379C352.272 30.9501 351.568 31.3952 350.797 31.6875C350.026 31.9798 349.204 32.1133 348.38 32.08H337.64C327.44 32.08 320.03 39.5899 320.03 49.3199C320.03 59.0499 327.44 66.55 337.64 66.55H348.38C349.204 66.5167 350.026 66.6501 350.797 66.9424C351.568 67.2347 352.272 67.6798 352.866 68.2509C353.461 68.822 353.934 69.5074 354.257 70.2659C354.581 71.0244 354.747 71.8405 354.747 72.665C354.747 73.4895 354.581 74.3055 354.257 75.064C353.934 75.8225 353.461 76.5079 352.866 77.079C352.272 77.6502 351.568 78.0952 350.797 78.3875C350.026 78.6798 349.204 78.8133 348.38 78.78H337.45Z" fill="black"/>
<path d="M62.53 77.16C47.15 77.16 36.4 65.67 36.4 51.4C36.4 37.13 47.15 25.65 62.53 25.65C77.91 25.65 88.65 37.14 88.65 51.4C88.65 65.66 77.81 77.16 62.53 77.16ZM62.53 37.69C59.8156 37.688 57.1616 38.4913 54.9038 39.9981C52.646 41.5049 50.886 43.6476 49.8463 46.155C48.8066 48.6624 48.534 51.4219 49.0631 54.0842C49.5922 56.7466 50.8991 59.1921 52.8185 61.1115C54.7379 63.0309 57.1835 64.3378 59.8458 64.8669C62.5082 65.396 65.2676 65.1234 67.775 64.0837C70.2824 63.0441 72.4251 61.284 73.9319 59.0262C75.4387 56.7684 76.242 54.1144 76.24 51.4C76.2753 49.5899 75.9448 47.7913 75.2683 46.1119C74.5918 44.4326 73.5833 42.9071 72.3031 41.6269C71.0229 40.3467 69.4975 39.3381 67.8181 38.6616C66.1388 37.9851 64.3402 37.6547 62.53 37.69Z" fill="white"/>
<path d="M119.72 75.95C104.9 75.95 94.4299 64.95 94.4299 51.4C94.4299 37.85 104.9 26.85 119.72 26.85H129.82V12.68C129.786 11.8442 129.922 11.0102 130.219 10.2281C130.515 9.446 130.967 8.73189 131.547 8.12866C132.126 7.52543 132.822 7.0455 133.591 6.71765C134.361 6.38981 135.189 6.22083 136.025 6.22083C136.862 6.22083 137.689 6.38981 138.459 6.71765C139.228 7.0455 139.924 7.52543 140.503 8.12866C141.083 8.73189 141.534 9.446 141.831 10.2281C142.128 11.0102 142.264 11.8442 142.23 12.68V70.86C142.22 72.2067 141.68 73.4953 140.728 74.4476C139.775 75.3999 138.487 75.9395 137.14 75.95H119.72ZM129.82 38.9H119.72C118.036 38.8326 116.357 39.106 114.781 39.7039C113.206 40.3017 111.768 41.2116 110.553 42.379C109.338 43.5463 108.371 44.9472 107.711 46.4973C107.05 48.0475 106.71 49.715 106.71 51.4C106.71 53.0849 107.05 54.7525 107.711 56.3026C108.371 57.8528 109.338 59.2536 110.553 60.421C111.768 61.5883 113.206 62.4982 114.781 63.0961C116.357 63.6939 118.036 63.9673 119.72 63.9H129.82V38.9Z" fill="white"/>
<path d="M149.8 12.86C149.8 11.3747 150.24 9.92265 151.066 8.68764C151.891 7.45263 153.064 6.49006 154.436 5.92165C155.808 5.35323 157.318 5.2045 158.775 5.49428C160.232 5.78405 161.57 6.49935 162.62 7.54964C163.671 8.59993 164.386 9.93806 164.676 11.3949C164.965 12.8517 164.817 14.3617 164.248 15.734C163.68 17.1062 162.717 18.2791 161.482 19.1043C160.247 19.9295 158.795 20.37 157.31 20.37C156.322 20.3753 155.343 20.1846 154.43 19.8091C153.516 19.4336 152.686 18.8806 151.988 18.1822C151.289 17.4838 150.736 16.6537 150.361 15.7402C149.985 14.8266 149.795 13.8477 149.8 12.86ZM151.1 32.04C151.1 30.393 151.754 28.8134 152.919 27.6488C154.083 26.4842 155.663 25.83 157.31 25.83C158.957 25.83 160.536 26.4842 161.701 27.6488C162.866 28.8134 163.52 30.393 163.52 32.04V70.77C163.52 72.417 162.866 73.9965 161.701 75.1611C160.536 76.3257 158.957 76.98 157.31 76.98C155.663 76.98 154.083 76.3257 152.919 75.1611C151.754 73.9965 151.1 72.417 151.1 70.77V32.04Z" fill="white"/>
<path d="M71.38 95.59C69.7887 95.59 68.2625 94.9579 67.1373 93.8326C66.0121 92.7074 65.38 91.1813 65.38 89.59C65.38 87.9987 66.0121 86.4726 67.1373 85.3474C68.2625 84.2222 69.7887 83.59 71.38 83.59H199.56C200.383 83.618 201.202 83.4764 201.968 83.1741C202.733 82.8718 203.428 82.4152 204.01 81.8327C204.591 81.2502 205.047 80.5543 205.348 79.7883C205.649 79.0223 205.789 78.2025 205.76 77.38V75.9901H195.72C180.89 75.9901 170.42 64.99 170.42 51.44C170.42 37.89 180.89 26.89 195.72 26.89H213.13C214.479 26.903 215.768 27.4446 216.722 28.3982C217.675 29.3518 218.217 30.6415 218.23 31.9901V77.38C218.296 79.7946 217.869 82.1974 216.976 84.4415C216.082 86.6856 214.74 88.724 213.032 90.432C211.324 92.14 209.286 93.4819 207.042 94.3756C204.797 95.2693 202.395 95.6962 199.98 95.63L71.38 95.59ZM205.72 38.9H195.72C194.036 38.8327 192.357 39.1061 190.781 39.7039C189.206 40.3017 187.768 41.2117 186.553 42.379C185.338 43.5464 184.371 44.9472 183.711 46.4974C183.05 48.0475 182.71 49.7151 182.71 51.4C182.71 53.085 183.05 54.7525 183.711 56.3027C184.371 57.8528 185.338 59.2536 186.553 60.421C187.768 61.5884 189.206 62.4983 190.781 63.0961C192.357 63.694 194.036 63.9674 195.72 63.9H205.72V38.9Z" fill="white"/>
<path d="M251.16 25.65C235.78 25.65 225.04 37.14 225.04 51.4C225.04 65.66 235.78 77.16 251.16 77.16C252.367 77.1597 253.573 77.0829 254.77 76.9301L274.46 39.4C270.28 31.21 261.8 25.65 251.16 25.65ZM251.16 65.11C248.448 65.11 245.798 64.306 243.543 62.7995C241.288 61.293 239.531 59.1518 238.494 56.6466C237.456 54.1414 237.184 51.3848 237.713 48.7253C238.242 46.0659 239.548 43.6229 241.466 41.7056C243.383 39.7882 245.826 38.4824 248.485 37.9534C251.145 37.4244 253.901 37.696 256.407 38.7336C258.912 39.7713 261.053 41.5285 262.559 43.7831C264.066 46.0377 264.87 48.6884 264.87 51.4C264.894 53.2062 264.556 54.999 263.875 56.6722C263.195 58.3454 262.185 59.8651 260.907 61.1415C259.629 62.4178 258.108 63.4249 256.434 64.1031C254.759 64.7814 252.966 65.1169 251.16 65.09V65.11Z" fill="white"/>
<path d="M303.43 15.64C303.229 14.981 302.898 14.369 302.456 13.84C302.015 13.311 301.472 12.8758 300.86 12.5599C300.688 12.4698 300.511 12.3897 300.33 12.3199L300.16 12.2599L299.79 12.14H299.59L299.2 12.0599H299.03H298.58H298.48C298.28 12.0599 298.08 12.0599 297.87 12.0599H297.73C297.57 12.0599 297.41 12.12 297.23 12.16H297.09C296.882 12.224 296.678 12.3008 296.48 12.39C296.302 12.47 296.128 12.5601 295.96 12.66L295.81 12.7499C295.648 12.848 295.495 12.9583 295.35 13.08H295.28C295.11 13.22 294.96 13.36 294.8 13.52L294.7 13.6299C294.58 13.7599 294.47 13.8999 294.34 14.0599L294.24 14.2C294.103 14.3879 293.98 14.5851 293.87 14.79L258.72 81.9399C258.055 83.1684 257.891 84.6069 258.264 85.9532C258.637 87.2995 259.517 88.449 260.72 89.16C260.904 89.2558 261.095 89.3393 261.29 89.41L261.47 89.48L261.87 89.61L262.07 89.66L262.51 89.74H262.66C262.83 89.7499 263 89.7499 263.17 89.74H263.23C263.437 89.7367 263.645 89.7199 263.85 89.6899H264.02C264.17 89.6899 264.32 89.6299 264.53 89.5699H264.63C264.84 89.4999 265.02 89.43 265.2 89.35H265.29L265.75 89.1L265.91 88.9999C266.05 88.9099 266.19 88.8 266.36 88.67H266.42C266.58 88.53 266.74 88.38 266.89 88.22L266.99 88.09C267.114 87.9527 267.231 87.8092 267.34 87.66L267.43 87.52C267.565 87.3272 267.688 87.1269 267.8 86.92L302.99 19.84C303.348 19.2076 303.571 18.5084 303.647 17.7858C303.723 17.0632 303.649 16.3327 303.43 15.64Z" fill="black"/>
<path d="M456.19 7.26001C458.987 7.26796 461.667 8.38544 463.641 10.3671C465.615 12.3488 466.723 15.0328 466.72 17.83V41.73C466.73 42.366 466.988 42.973 467.437 43.4227C467.887 43.8725 468.494 44.1297 469.13 44.14C469.867 44.1085 470.603 44.2265 471.294 44.4869C471.984 44.7473 472.615 45.1448 473.148 45.6553C473.681 46.1659 474.105 46.779 474.395 47.4578C474.684 48.1366 474.834 48.867 474.834 49.605C474.834 50.3431 474.684 51.0734 474.395 51.7522C474.105 52.431 473.681 53.0441 473.148 53.5547C472.615 54.0653 471.984 54.4627 471.294 54.7231C470.603 54.9836 469.867 55.1016 469.13 55.07C468.495 55.0828 467.889 55.3408 467.44 55.79C466.991 56.2393 466.733 56.8449 466.72 57.48V81.39C466.721 82.7771 466.449 84.1509 465.919 85.4327C465.389 86.7145 464.611 87.8791 463.63 88.86C462.649 89.8408 461.484 90.6186 460.203 91.1489C458.921 91.6791 457.547 91.9513 456.16 91.95H447.91C446.501 91.8897 445.17 91.2876 444.194 90.2693C443.218 89.2511 442.674 87.8953 442.674 86.485C442.674 85.0748 443.218 83.719 444.194 82.7007C445.17 81.6825 446.501 81.0803 447.91 81.02H455.6V58.41C455.588 55.1482 456.814 52.0032 459.03 49.61C456.845 47.1971 455.624 44.0649 455.6 40.81V18.2H447.91C446.459 18.2 445.068 17.6237 444.042 16.5979C443.016 15.5721 442.44 14.1808 442.44 12.73C442.44 11.2793 443.016 9.88801 444.042 8.86218C445.068 7.83636 446.459 7.26001 447.91 7.26001H456.19Z" fill="black"/>
</svg>
