<?xml version="1.0" standalone="no"?>
<!DOCTYPE svg PUBLIC "-//W3C//DTD SVG 20010904//EN"
 "http://www.w3.org/TR/2001/REC-SVG-20010904/DTD/svg10.dtd">
<svg version="1.0" xmlns="http://www.w3.org/2000/svg"
 width="300.000000pt" height="60.000000pt" viewBox="0 0 300.000000 60.000000"
 preserveAspectRatio="xMidYMid meet">
<metadata>
Created by potrace 1.10, written by Peter Selinger 2001-2011
</metadata>
<g transform="translate(0.000000,60.000000) scale(0.100000,-0.100000)"
fill="#000000" stroke="none">
<path d="M927 583 c-4 -3 -7 -15 -7 -25 0 -13 7 -18 25 -18 29 0 36 34 9 44
-19 7 -19 7 -27 -1z"/>
<path d="M1253 583 c-7 -2 -13 -13 -13 -24 0 -14 7 -19 26 -19 20 0 25 4 22
22 -3 23 -15 30 -35 21z"/>
<path d="M152 365 c3 -189 5 -214 24 -250 25 -50 104 -105 148 -104 30 0 29 1
-19 24 -55 26 -95 57 -95 74 0 6 -4 11 -9 11 -20 0 -31 92 -28 255 2 149 4
170 19 173 14 3 16 -13 17 -150 1 -151 14 -258 32 -258 5 0 9 -6 9 -13 0 -20
73 -57 114 -57 59 0 115 34 137 84 16 36 19 69 19 219 1 168 2 177 21 177 22
0 24 -10 7 -29 -10 -11 -10 -12 -1 -7 20 11 17 -337 -2 -375 -23 -44 -71 -88
-118 -109 -39 -17 -40 -19 -14 -19 15 -1 40 5 56 13 42 22 98 90 110 133 6 21
11 122 11 226 l0 187 -45 0 -45 0 0 -182 c0 -154 -3 -188 -18 -218 -20 -40
-74 -80 -109 -80 -41 0 -92 28 -113 62 -18 30 -20 50 -20 228 l0 195 -46 0
-45 0 3 -210z"/>
<path d="M8 284 c1 -158 5 -285 7 -282 2 2 5 126 6 275 l1 271 24 0 25 0 -3
-269 c-2 -148 0 -269 5 -269 4 0 10 -1 14 -2 4 -2 9 124 10 280 l1 282 -46 0
-47 0 3 -286z"/>
<path d="M640 431 l0 -141 43 0 c101 1 158 33 178 101 15 50 4 103 -31 142
-27 30 -33 32 -109 35 l-81 4 0 -141z m160 72 c13 -17 20 -41 20 -69 0 -57
-30 -91 -87 -100 l-43 -7 0 104 0 104 45 -3 c34 -3 50 -10 65 -29z"/>
<path d="M1730 430 c0 -133 1 -140 20 -140 19 0 20 7 20 140 0 133 -1 140 -20
140 -19 0 -20 -7 -20 -140z"/>
<path d="M1965 530 c0 -25 5 -40 13 -40 7 0 12 15 12 40 0 25 -5 40 -12 40 -8
0 -13 -15 -13 -40z"/>
<path d="M2010 530 c0 -22 5 -40 10 -40 6 0 10 12 10 28 l1 27 17 -27 c25 -41
42 -36 42 12 0 22 -4 40 -10 40 -5 0 -10 -12 -10 -27 l-1 -28 -20 28 c-28 37
-39 34 -39 -13z"/>
<path d="M2117 563 c-15 -14 -6 -33 18 -39 14 -3 22 -10 19 -15 -3 -6 -14 -7
-25 -4 -11 4 -19 2 -19 -4 0 -16 57 -13 63 3 6 16 -11 36 -30 36 -7 0 -13 5
-13 11 0 6 9 8 20 4 11 -4 20 -2 20 4 0 12 -43 15 -53 4z"/>
<path d="M2190 560 c0 -5 6 -9 13 -7 8 1 11 -9 11 -30 -1 -21 3 -33 11 -33 8
0 12 12 11 33 0 21 3 31 12 30 6 -2 12 2 12 7 0 6 -16 10 -35 10 -19 0 -35 -4
-35 -10z"/>
<path d="M2280 530 c0 -22 5 -40 10 -40 6 0 10 18 10 40 0 22 -4 40 -10 40 -5
0 -10 -18 -10 -40z"/>
<path d="M2315 560 c4 -6 11 -8 16 -5 5 4 9 -10 9 -29 0 -20 5 -36 10 -36 6 0
10 16 10 35 0 26 3 33 15 29 8 -4 15 -1 15 5 0 6 -18 11 -41 11 -25 0 -38 -4
-34 -10z"/>
<path d="M2408 538 c9 -69 72 -70 72 -3 0 19 -4 35 -10 35 -5 0 -10 -13 -10
-29 0 -17 -4 -32 -9 -35 -15 -9 -33 22 -26 44 4 13 2 20 -8 20 -10 0 -12 -9
-9 -32z"/>
<path d="M2512 558 c-18 -18 -14 -45 9 -61 21 -15 59 -12 59 5 0 6 -9 8 -20 5
-10 -3 -24 1 -31 9 -16 19 5 44 31 37 11 -3 20 0 20 6 0 15 -53 14 -68 -1z"/>
<path d="M2600 530 c0 -22 5 -40 10 -40 6 0 10 18 10 40 0 22 -4 40 -10 40 -5
0 -10 -18 -10 -40z"/>
<path d="M2644 556 c-3 -8 -4 -25 -2 -38 2 -19 9 -23 38 -23 33 0 35 2 35 35
0 32 -3 35 -33 38 -21 2 -34 -2 -38 -12z m56 -12 c11 -12 10 -18 -3 -32 -16
-15 -18 -15 -34 0 -13 14 -14 20 -3 32 7 9 16 16 20 16 4 0 13 -7 20 -16z"/>
<path d="M2745 530 c-1 -24 4 -40 11 -40 7 0 10 11 7 28 l-4 27 21 -27 c30
-38 40 -35 40 12 0 23 -5 40 -11 40 -7 0 -9 -10 -5 -27 l6 -28 -23 28 c-31 37
-42 34 -42 -13z"/>
<path d="M1362 525 c-6 -14 -16 -25 -22 -25 -5 0 -10 -7 -10 -15 0 -8 7 -15
15 -15 12 0 15 -15 15 -74 0 -86 12 -106 66 -106 27 0 34 4 34 19 0 14 -8 21
-27 23 -27 3 -28 5 -31 71 l-3 67 31 0 c24 0 30 4 30 21 0 18 -4 20 -30 14
-27 -6 -30 -4 -30 19 0 33 -23 34 -38 1z"/>
<path d="M920 400 l0 -110 25 0 25 0 0 110 0 110 -25 0 -25 0 0 -110z"/>
<path d="M1055 497 c-11 -5 -23 -15 -27 -21 -13 -19 -9 -73 7 -86 11 -9 12
-16 4 -26 -6 -7 -9 -22 -7 -32 2 -11 -5 -29 -16 -41 -42 -47 14 -99 95 -88 60
8 89 31 89 70 0 45 -16 57 -75 57 -56 0 -66 5 -58 26 3 8 19 14 39 14 48 0 78
32 71 76 -5 29 -3 34 14 34 10 0 19 6 19 14 0 17 -126 20 -155 3z m75 -32 c7
-9 10 -25 6 -40 -6 -22 -11 -26 -39 -23 -25 2 -33 8 -35 26 -7 44 41 70 68 37z
m8 -171 c35 -10 25 -46 -16 -58 -58 -16 -110 27 -64 53 20 12 47 13 80 5z"/>
<path d="M1240 400 l0 -110 25 0 25 0 0 110 0 110 -25 0 -25 0 0 -110z"/>
<path d="M1533 503 c-13 -2 -23 -7 -23 -11 1 -19 19 -27 60 -27 39 0 45 -3 48
-22 3 -21 -1 -23 -40 -23 -59 0 -88 -22 -88 -65 0 -24 7 -39 22 -49 28 -20 72
-20 88 -1 7 8 16 15 21 15 5 0 9 -7 9 -15 0 -9 9 -15 21 -15 20 0 21 4 17 91
-3 81 -6 93 -27 110 -22 18 -57 22 -108 12z m87 -126 c0 -30 -18 -47 -51 -47
-53 0 -45 55 9 63 15 2 30 5 35 6 4 0 7 -9 7 -22z"/>
<path d="M1968 425 c-3 -3 -2 -22 1 -43 6 -33 9 -37 36 -37 28 0 30 3 33 43 2
25 -1 42 -7 42 -6 0 -11 -16 -11 -35 0 -24 -5 -35 -15 -35 -10 0 -15 11 -15
35 0 32 -8 43 -22 30z"/>
<path d="M2068 385 c-2 -32 1 -45 10 -45 8 0 11 9 7 28 l-6 27 23 -27 c13 -16
27 -28 31 -28 4 0 7 20 7 45 0 26 -5 45 -11 45 -7 0 -8 -12 -4 -32 l6 -33 -20
25 c-11 14 -21 28 -21 33 0 4 -4 7 -9 7 -5 0 -11 -20 -13 -45z"/>
<path d="M2170 385 c0 -25 5 -45 10 -45 6 0 10 20 10 45 0 25 -4 45 -10 45 -5
0 -10 -20 -10 -45z"/>
<path d="M2202 423 c2 -5 10 -25 18 -45 17 -45 34 -49 48 -10 5 15 13 35 17
45 4 9 3 17 -3 17 -5 0 -15 -14 -22 -31 l-13 -31 -13 31 c-7 17 -18 31 -24 31
-7 0 -10 -3 -8 -7z"/>
<path d="M2310 385 c0 -43 1 -45 30 -45 17 0 30 5 30 10 0 6 -12 10 -26 10
-15 0 -23 4 -18 11 3 6 15 9 25 6 11 -3 19 -1 19 4 0 5 -11 9 -25 9 -14 0 -25
5 -25 10 0 6 11 10 25 10 14 0 25 5 25 10 0 6 -13 10 -30 10 -29 0 -30 -2 -30
-45z"/>
<path d="M2390 385 c0 -25 5 -45 10 -45 6 0 10 7 10 15 0 8 4 15 9 15 5 0 11
-7 15 -15 10 -27 21 -16 23 22 2 40 -9 53 -44 53 -21 0 -23 -5 -23 -45z m48
13 c-6 -18 -28 -21 -28 -4 0 9 7 16 16 16 9 0 14 -5 12 -12z"/>
<path d="M2493 423 c-21 -8 -15 -33 12 -45 13 -6 22 -15 19 -19 -3 -5 -14 -4
-26 2 -16 9 -19 8 -16 -3 7 -20 54 -22 62 -3 8 22 -1 35 -25 35 -10 0 -19 5
-19 11 0 7 9 9 21 6 13 -3 19 -1 16 6 -4 13 -26 18 -44 10z"/>
<path d="M2568 385 c-2 -31 1 -45 9 -45 9 0 13 16 13 45 0 25 -4 45 -9 45 -5
0 -11 -20 -13 -45z"/>
<path d="M2600 420 c0 -5 7 -10 15 -10 10 0 15 -11 15 -35 0 -19 5 -35 10 -35
6 0 10 16 10 35 0 24 5 35 15 35 8 0 15 5 15 10 0 6 -18 10 -40 10 -22 0 -40
-4 -40 -10z"/>
<path d="M2700 393 c-8 -21 -16 -40 -17 -43 -2 -3 17 -5 41 -5 41 0 43 1 35
23 -14 37 -29 62 -37 62 -5 0 -14 -17 -22 -37z m34 -8 c3 -9 0 -15 -9 -15 -9
0 -12 6 -9 15 4 8 7 15 9 15 2 0 5 -7 9 -15z"/>
<path d="M2789 428 c-1 -2 -3 -22 -3 -45 -2 -29 2 -43 11 -43 7 0 10 6 7 15
-4 8 -1 15 5 15 7 0 14 -7 17 -15 4 -8 13 -15 21 -15 13 0 13 3 3 15 -9 11
-10 18 -1 29 9 11 8 18 -4 30 -14 13 -52 22 -56 14z m42 -33 c-1 -15 -24 -12
-29 3 -3 9 2 13 12 10 10 -1 17 -7 17 -13z"/>
<path d="M2872 385 c0 -25 4 -45 9 -45 5 0 9 16 9 35 0 19 0 38 1 42 0 4 -4 9
-9 11 -5 1 -9 -18 -10 -43z"/>
<path d="M2929 388 l-16 -43 42 0 c40 0 42 1 34 23 -14 37 -29 62 -37 62 -4 0
-15 -19 -23 -42z m35 -3 c3 -9 0 -15 -9 -15 -9 0 -12 6 -9 15 4 8 7 15 9 15 2
0 5 -7 9 -15z"/>
<path d="M1970 235 c0 -48 11 -56 49 -35 43 23 25 80 -26 80 -21 0 -23 -4 -23
-45z m55 15 c7 -12 -12 -40 -26 -40 -5 0 -9 11 -9 25 0 25 23 35 35 15z"/>
<path d="M2068 235 c2 -25 8 -45 13 -45 5 0 9 20 9 45 0 29 -4 45 -13 45 -8 0
-11 -14 -9 -45z"/>
<path d="M2116 258 c-25 -36 16 -85 52 -62 25 16 24 44 -1 43 -12 0 -16 -3 -9
-6 6 -2 12 -9 12 -14 0 -14 -37 -11 -42 4 -9 22 3 37 28 37 14 0 22 4 19 10
-11 17 -43 11 -59 -12z"/>
<path d="M2208 235 c2 -25 8 -45 13 -45 5 0 9 20 9 45 0 29 -4 45 -13 45 -8 0
-11 -14 -9 -45z"/>
<path d="M2240 270 c0 -5 7 -10 15 -10 10 0 15 -11 15 -35 0 -19 5 -35 10 -35
6 0 10 16 10 35 0 24 5 35 15 35 8 0 15 5 15 10 0 6 -18 10 -40 10 -22 0 -40
-4 -40 -10z"/>
<path d="M2337 238 c-19 -48 -17 -54 11 -37 17 10 23 10 36 -1 9 -7 19 -11 21
-8 8 8 -29 88 -41 88 -6 0 -18 -19 -27 -42z m37 -3 c3 -9 0 -15 -9 -15 -9 0
-12 6 -9 15 4 8 7 15 9 15 2 0 5 -7 9 -15z"/>
<path d="M2420 235 c0 -45 0 -45 35 -45 19 0 35 5 35 10 0 6 -11 10 -25 10
-22 0 -25 4 -25 35 0 19 -4 35 -10 35 -5 0 -10 -20 -10 -45z"/>
<path d="M720 184 c0 -22 -4 -25 -21 -21 -25 7 -59 -24 -59 -54 0 -42 18 -60
60 -57 l40 3 0 78 c0 45 -4 77 -10 77 -5 0 -10 -12 -10 -26z m-5 -79 c0 -35
-3 -40 -24 -40 -28 0 -42 30 -30 63 6 17 15 22 31 20 20 -3 23 -9 23 -43z"/>
<path d="M947 129 c-26 -69 -31 -110 -6 -55 17 37 65 37 80 0 5 -15 12 -25 14
-22 6 6 -46 148 -54 148 -3 0 -19 -32 -34 -71z m52 -6 c1 -7 -8 -13 -19 -13
-23 0 -23 0 -9 37 10 26 12 27 19 8 5 -11 9 -26 9 -32z"/>
<path d="M1650 190 c0 -5 5 -10 10 -10 6 0 10 5 10 10 0 6 -4 10 -10 10 -5 0
-10 -4 -10 -10z"/>
<path d="M1180 175 c0 -8 -6 -15 -12 -15 -10 0 -10 -2 -1 -8 6 -4 13 -28 15
-52 3 -40 6 -45 28 -47 25 -3 25 -3 3 7 -18 7 -23 17 -23 49 0 33 4 40 23 44
l22 4 -22 2 c-16 1 -21 6 -17 16 4 8 1 15 -5 15 -6 0 -11 -7 -11 -15z"/>
<path d="M793 159 c-27 -10 -39 -52 -24 -85 8 -19 18 -24 46 -24 19 0 35 3 35
8 0 4 -15 7 -32 7 -23 0 -34 5 -36 18 -3 14 4 17 38 17 34 0 41 3 36 16 -3 9
-6 20 -6 24 0 17 -34 28 -57 19z m45 -29 c2 -10 -7 -15 -28 -16 -28 -1 -39 13
-23 30 12 12 48 2 51 -14z"/>
<path d="M1090 160 c-8 -5 -18 -6 -22 -4 -4 3 -7 -21 -7 -53 1 -32 4 -44 6
-28 8 66 13 75 38 75 23 0 25 -3 25 -50 0 -27 5 -50 10 -50 11 0 13 80 2 96
-11 16 -37 23 -52 14z"/>
<path d="M1313 159 c-27 -10 -38 -46 -24 -82 8 -21 17 -27 40 -27 37 0 53 20
49 61 -4 39 -33 61 -65 48z m47 -23 c26 -32 -7 -87 -44 -73 -16 6 -23 66 -9
80 11 12 40 8 53 -7z"/>
<path d="M1434 160 c-26 -10 -37 -50 -24 -85 9 -24 15 -27 45 -23 32 4 34 2
38 -27 2 -16 5 8 5 54 1 46 -1 81 -4 78 -4 -3 -14 -2 -23 2 -9 5 -26 5 -37 1z
m47 -31 c16 -31 -4 -71 -34 -67 -39 5 -37 88 2 88 11 0 25 -10 32 -21z"/>
<path d="M1718 163 c-27 -7 -21 -19 9 -18 38 0 39 -19 1 -30 -26 -8 -33 -15
-33 -35 0 -22 4 -25 38 -26 l37 -1 0 48 c0 51 -16 70 -52 62z m40 -75 c-7 -21
-36 -34 -49 -21 -6 6 -8 16 -5 22 10 15 59 14 54 -1z"/>
<path d="M1253 105 c0 -33 2 -45 4 -27 2 18 2 45 0 60 -2 15 -4 0 -4 -33z"/>
<path d="M1530 118 c0 -58 10 -69 53 -66 l37 2 0 53 c0 29 -4 53 -8 53 -4 0
-6 -16 -4 -35 5 -39 -11 -65 -39 -65 -21 0 -23 7 -20 63 2 21 -2 37 -8 37 -6
0 -11 -18 -11 -42z"/>
<path d="M1650 105 c0 -30 5 -55 10 -55 6 0 10 25 10 55 0 30 -4 55 -10 55 -5
0 -10 -25 -10 -55z"/>
<path d="M1970 90 c0 -38 2 -40 30 -40 36 0 56 30 40 60 -7 13 -21 20 -40 20
-28 0 -30 -2 -30 -40z m60 2 c0 -10 -22 -32 -32 -32 -4 0 -8 14 -8 30 0 28 2
30 20 20 11 -6 20 -14 20 -18z"/>
<path d="M2065 91 c0 -37 2 -40 33 -43 20 -3 32 0 32 8 0 7 -8 10 -19 7 -10
-3 -22 0 -25 6 -5 7 3 11 18 11 14 0 26 5 26 10 0 6 -12 10 -26 10 -15 0 -23
4 -19 10 4 6 15 8 26 5 11 -4 19 -2 19 4 0 6 -15 11 -32 11 -32 0 -33 -2 -33
-39z"/>
<path d="M2205 94 c-20 -48 -19 -57 5 -42 16 10 24 10 40 0 24 -15 25 -4 6 43
-19 45 -32 44 -51 -1z m35 -9 c0 -8 -4 -15 -10 -15 -5 0 -10 7 -10 15 0 8 5
15 10 15 6 0 10 -7 10 -15z"/>
<path d="M2290 90 c0 -22 5 -40 10 -40 6 0 10 12 10 28 l1 27 17 -28 c25 -40
42 -35 42 13 0 22 -4 40 -10 40 -5 0 -10 -12 -10 -27 l-1 -28 -17 28 c-25 40
-42 35 -42 -13z"/>
<path d="M2390 119 c0 -5 5 -7 10 -4 6 4 10 -8 10 -29 0 -19 5 -38 10 -41 6
-4 10 8 10 29 0 25 4 36 15 36 8 0 15 5 15 10 0 6 -16 10 -35 10 -19 0 -35 -5
-35 -11z"/>
<path d="M2480 84 c0 -27 4 -43 10 -39 6 3 10 24 10 46 0 21 -4 39 -10 39 -5
0 -10 -21 -10 -46z"/>
<path d="M2527 123 c-15 -14 -7 -63 12 -73 39 -20 82 22 61 60 -10 20 -58 28
-73 13z m53 -19 c11 -12 11 -18 -2 -31 -19 -18 -38 -10 -38 16 0 33 20 40 40
15z"/>
<path d="M2632 118 c-31 -31 6 -79 53 -70 46 8 28 82 -20 82 -12 0 -26 -5 -33
-12z m58 -24 c0 -8 -5 -14 -11 -14 -5 0 -7 -5 -4 -10 10 -16 -11 -12 -25 5
-10 12 -10 18 0 29 13 17 40 10 40 -10z"/>
<path d="M2730 95 c0 -30 19 -55 44 -55 15 0 36 35 36 61 0 40 -18 37 -22 -3
-2 -21 -8 -33 -18 -33 -10 0 -16 12 -18 33 -4 43 -22 41 -22 -3z"/>
<path d="M2830 90 c0 -22 5 -40 10 -40 6 0 10 18 10 40 0 22 -4 40 -10 40 -5
0 -10 -18 -10 -40z"/>
<path d="M2884 95 c-19 -47 -18 -58 6 -43 16 10 24 10 40 0 24 -15 25 -4 6 43
-8 19 -20 35 -26 35 -6 0 -18 -16 -26 -35z m36 -10 c0 -8 -4 -15 -10 -15 -5 0
-10 7 -10 15 0 8 5 15 10 15 6 0 10 -7 10 -15z"/>
</g>
</svg>
