<?xml version="1.0" standalone="no"?>
<!DOCTYPE svg PUBLIC "-//W3C//DTD SVG 20010904//EN"
 "http://www.w3.org/TR/2001/REC-SVG-20010904/DTD/svg10.dtd">
<svg version="1.0" xmlns="http://www.w3.org/2000/svg"
 width="300.000000pt" height="87.000000pt" viewBox="0 0 300.000000 87.000000"
 preserveAspectRatio="xMidYMid meet">
<metadata>
Created by potrace 1.10, written by Peter Selinger 2001-2011
</metadata>
<g transform="translate(0.000000,87.000000) scale(0.100000,-0.100000)"
fill="#000000" stroke="none">
<path d="M134 717 c-2 -7 -3 -80 -2 -162 3 -125 5 -150 18 -150 12 0 16 16 18
73 l3 72 45 0 c73 0 84 -11 84 -80 0 -53 2 -60 20 -60 18 0 20 7 20 58 0 37
-6 66 -16 81 -12 17 -13 26 -5 34 12 12 15 75 5 102 -4 8 -19 22 -35 30 -36
19 -148 20 -155 2z m151 -51 c11 -17 13 -30 6 -48 -11 -30 -29 -38 -82 -38
l-39 0 0 55 0 55 50 0 c41 0 52 -4 65 -24z"/>
<path d="M464 721 c-44 -19 -54 -49 -54 -154 0 -96 1 -99 29 -128 40 -39 114
-42 155 -4 25 23 26 28 26 133 0 102 -1 110 -24 131 -27 26 -97 37 -132 22z
m110 -53 c11 -16 16 -46 16 -98 0 -97 -14 -120 -74 -120 -23 0 -47 5 -54 12
-19 19 -16 193 4 212 24 25 90 21 108 -6z"/>
<path d="M722 722 c-9 -6 -12 -45 -10 -158 l3 -149 78 -3 c71 -3 79 -1 102 22
29 29 33 80 10 114 -14 19 -14 24 1 47 20 31 12 84 -17 111 -22 20 -143 32
-167 16z m142 -48 c23 -22 20 -60 -6 -78 -12 -9 -42 -16 -65 -16 l-43 0 0 55
0 55 49 0 c32 0 55 -6 65 -16z m-2 -136 c49 -40 10 -98 -67 -98 l-45 0 0 55 0
55 48 0 c27 0 55 -6 64 -12z"/>
<path d="M1031 704 l-31 -26 0 -109 c0 -103 1 -111 25 -134 19 -20 34 -25 75
-25 44 0 56 5 81 29 28 28 29 33 29 120 0 49 -5 102 -12 116 -26 58 -115 73
-167 29z m123 -30 c20 -19 23 -193 4 -212 -18 -18 -88 -15 -110 5 -24 22 -26
167 -2 201 18 27 84 31 108 6z"/>
<path d="M1290 710 c0 -17 7 -20 46 -20 l46 0 -4 -140 c-3 -134 -2 -140 17
-140 19 0 20 6 17 140 l-4 140 46 0 c39 0 46 3 46 20 0 19 -7 20 -105 20 -98
0 -105 -1 -105 -20z"/>
<path d="M1750 667 c-17 -34 -30 -68 -30 -74 0 -7 -6 -13 -12 -13 -7 0 -26 32
-42 70 -21 52 -33 70 -47 70 -18 0 -19 -10 -19 -155 0 -152 0 -155 21 -155 21
0 22 3 17 105 -3 58 -2 105 2 105 4 0 16 -24 27 -52 27 -72 45 -72 73 -3 12
30 25 55 29 55 4 0 5 -47 3 -105 -4 -101 -4 -105 17 -105 20 0 21 4 21 154 0
130 -2 155 -15 160 -12 4 -24 -10 -45 -57z"/>
<path d="M1955 718 c-2 -7 -20 -57 -40 -112 -42 -117 -48 -196 -15 -196 17 0
20 7 20 50 l0 50 65 0 65 0 0 -50 c0 -43 3 -50 20 -50 34 0 26 95 -18 215 -34
91 -40 100 -65 103 -16 2 -29 -2 -32 -10z m57 -90 c29 -81 29 -80 -27 -80 -37
0 -49 3 -46 13 20 67 44 129 49 125 3 -3 13 -29 24 -58z"/>
<path d="M2180 570 l0 -160 68 0 c106 0 142 40 142 160 0 118 -41 160 -155
160 l-55 0 0 -160z m149 94 c17 -22 21 -41 21 -99 0 -92 -14 -112 -84 -117
l-49 -3 -1 123 -1 122 47 0 c38 0 50 -5 67 -26z"/>
<path d="M2497 723 c-4 -3 -7 -75 -7 -160 l0 -153 95 0 c90 0 95 1 95 21 0 20
-4 21 -77 18 l-78 -4 -3 53 -3 52 70 0 c65 0 71 2 71 21 0 19 -5 21 -67 17
l-68 -3 -3 53 -3 52 80 0 c74 0 81 2 81 20 0 18 -7 20 -88 20 -49 0 -92 -3
-95 -7z"/>
<path d="M2844 545 c-8 -21 2 -45 19 -45 8 0 20 7 27 15 10 12 10 18 0 30 -7
8 -19 15 -27 15 -7 0 -16 -7 -19 -15z"/>
<path d="M2851 451 c-9 -6 -11 -18 -7 -34 3 -14 2 -29 -4 -32 -7 -4 -7 -13 0
-26 14 -25 28 -16 46 27 11 25 12 40 4 54 -12 22 -18 24 -39 11z"/>
<path d="M2041 231 c-28 -22 -25 -55 7 -59 20 -3 22 1 22 37 0 23 -1 41 -2 41
-2 0 -14 -9 -27 -19z"/>
<path d="M2140 210 c0 -37 2 -41 23 -38 31 4 33 39 2 61 l-25 18 0 -41z"/>
<path d="M2322 210 c0 -25 3 -35 5 -22 5 27 23 29 23 2 0 -11 5 -20 11 -20 6
0 8 7 5 16 -3 9 -6 22 -6 30 0 8 -6 14 -14 14 -8 0 -17 6 -19 13 -3 6 -5 -8
-5 -33z"/>
<path d="M1608 231 c8 -4 12 -20 10 -34 -1 -14 0 -26 5 -27 4 0 10 0 15 0 4 0
7 16 7 35 0 31 -3 35 -25 35 -18 0 -21 -3 -12 -9z"/>
<path d="M1859 235 c-1 -3 -2 -18 -3 -35 -1 -22 4 -30 16 -30 14 0 15 5 8 29
-4 16 -6 32 -2 35 3 3 0 6 -6 6 -7 0 -13 -2 -13 -5z"/>
<path d="M1666 223 c-3 -4 -6 -18 -5 -32 l1 -26 8 25 c8 24 8 24 9 3 1 -13 5
-23 10 -23 5 0 12 10 14 23 l4 22 2 -22 c1 -19 7 -23 32 -23 27 0 30 3 27 27
-3 24 -7 27 -49 29 -26 2 -49 0 -53 -3z"/>
<path d="M1792 218 c-19 -19 -14 -38 11 -48 18 -7 18 -9 4 -9 -10 -1 -16 -5
-12 -11 3 -5 12 -7 21 -3 10 4 14 16 12 41 -3 38 -17 49 -36 30z"/>
<path d="M1913 223 c-15 -6 -18 -53 -3 -53 6 0 10 9 10 20 0 27 17 25 23 -2 4
-16 5 -14 4 6 -2 30 -12 38 -34 29z"/>
<path d="M1970 215 c-17 -21 -5 -45 22 -44 22 1 22 1 -2 9 -25 8 -25 8 -2 9
16 1 22 6 20 18 -4 23 -22 27 -38 8z"/>
<path d="M2231 213 c-8 -13 -13 -15 -19 -6 -4 7 -7 -4 -7 -26 0 -48 19 -45 36
6 12 38 7 54 -10 26z"/>
<path d="M2428 223 c-10 -2 -18 -13 -18 -24 0 -26 -18 -24 -23 4 -4 19 -4 18
-6 -5 -1 -25 3 -28 29 -28 23 0 30 4 30 20 0 28 20 25 21 -2 1 -22 1 -22 8 2
l8 25 6 -25 c4 -22 5 -21 4 5 -2 31 -19 39 -59 28z"/>
<path d="M2506 221 c-4 -5 2 -12 11 -14 17 -4 17 -5 1 -6 -10 0 -18 -8 -18
-16 0 -10 11 -15 35 -15 28 0 35 4 35 20 0 27 17 25 23 -2 4 -16 5 -13 4 7 -2
36 -30 42 -35 8 -4 -29 -20 -30 -24 -1 -3 23 -23 35 -32 19z"/>
<path d="M2624 218 c-4 -6 1 -17 10 -24 16 -12 16 -13 -1 -17 -15 -4 -14 -5 4
-6 31 -1 39 17 11 28 -18 8 -19 10 -5 10 10 1 15 6 12 11 -8 13 -22 13 -31 -2z"/>
</g>
</svg>
